<?xml version="1.0" encoding="utf-8"?>
<!-- Generator: Adobe Illustrator 19.1.0, SVG Export Plug-In . SVG Version: 6.00 Build 0)  -->
<svg version="1.1" id="Layer_1" xmlns="http://www.w3.org/2000/svg" xmlns:xlink="http://www.w3.org/1999/xlink" x="0px" y="0px"
	 viewBox="0 0 400 20" style="enable-background:new 0 0 400 20;" xml:space="preserve">
<style type="text/css">
	.st0{fill:#FFFFFF;}
</style>
<polygon points="20,20 0,20 10,0 10,0 "/>
<polygon class="st0" points="20,21.8 0,21.8 10,1.8 10,1.8 "/>
<polygon points="40,20 20,20 30,0 30,0 "/>
<polygon class="st0" points="40,21.8 20,21.8 30,1.8 30,1.8 "/>
<polygon points="60,20 40,20 50,0 50,0 "/>
<polygon class="st0" points="60,21.8 40,21.8 50,1.8 50,1.8 "/>
<polygon points="80,20 60,20 70,0 70,0 "/>
<polygon class="st0" points="80,21.8 60,21.8 70,1.8 70,1.8 "/>
<polygon points="100,20 80,20 90,0 90,0 "/>
<polygon class="st0" points="100,21.8 80,21.8 90,1.8 90,1.8 "/>
<polygon points="120,20 100,20 110,0 110,0 "/>
<polygon class="st0" points="120,21.8 100,21.8 110,1.8 110,1.8 "/>
<polygon points="140,20 120,20 130,0 130,0 "/>
<polygon class="st0" points="140,21.8 120,21.8 130,1.8 130,1.8 "/>
<polygon points="160,20 140,20 150,0 150,0 "/>
<polygon class="st0" points="160,21.8 140,21.8 150,1.8 150,1.8 "/>
<polygon points="180,20 160,20 170,0 170,0 "/>
<polygon class="st0" points="180,21.8 160,21.8 170,1.8 170,1.8 "/>
<polygon points="200,20 180,20 190,0 190,0 "/>
<polygon class="st0" points="200,21.8 180,21.8 190,1.8 190,1.8 "/>
<polygon points="220,20 200,20 210,0 210,0 "/>
<polygon class="st0" points="220,21.8 200,21.8 210,1.8 210,1.8 "/>
<polygon points="240,20 220,20 230,0 230,0 "/>
<polygon class="st0" points="240,21.8 220,21.8 230,1.8 230,1.8 "/>
<polygon points="260,20 240,20 250,0 250,0 "/>
<polygon class="st0" points="260,21.8 240,21.8 250,1.8 250,1.8 "/>
<polygon points="280,20 260,20 270,0 270,0 "/>
<polygon class="st0" points="280,21.8 260,21.8 270,1.8 270,1.8 "/>
<polygon points="300,20 280,20 290,0 290,0 "/>
<polygon class="st0" points="300,21.8 280,21.8 290,1.8 290,1.8 "/>
<polygon points="320,20 300,20 310,0 310,0 "/>
<polygon class="st0" points="320,21.8 300,21.8 310,1.8 310,1.8 "/>
<polygon points="340,20 320,20 330,0 330,0 "/>
<polygon class="st0" points="340,21.8 320,21.8 330,1.8 330,1.8 "/>
<polygon points="360,20 340,20 350,0 350,0 "/>
<polygon class="st0" points="360,21.8 340,21.8 350,1.8 350,1.8 "/>
<polygon points="380,20 360,20 370,0 370,0 "/>
<polygon class="st0" points="380,21.8 360,21.8 370,1.8 370,1.8 "/>
<polygon points="400,20 380,20 390,0 390,0 "/>
<polygon class="st0" points="400,21.8 380,21.8 390,1.8 390,1.8 "/>
</svg>
