<?xml version="1.0" encoding="utf-8"?>
<!-- Generator: Adobe Illustrator 19.1.0, SVG Export Plug-In . SVG Version: 6.00 Build 0)  -->
<svg version="1.1" id="Layer_1" xmlns="http://www.w3.org/2000/svg" xmlns:xlink="http://www.w3.org/1999/xlink" x="0px" y="0px"
	 viewBox="155.6 -130.8 300.2 284.4" style="enable-background:new 155.6 -130.8 300.2 284.4;" xml:space="preserve">
<style type="text/css">
	.st0{fill:#5B5B5B;}
	.st1{fill:#231F20;}
	.st2{fill:#D8D8D8;}
	.st3{fill:#9C9A99;}
	.st4{fill:#FFFFFF;}
	.st5{fill:#DCD9D8;}
	.st6{fill:#A0A0A0;}
	.st7{fill:#B5B5B5;}
	.st8{fill:#383838;}
	.st9{fill:#CECECE;}
	.st10{fill:#444444;}
	.st11{fill:#D33833;}
	.st12{fill:#707070;}
</style>
<path class="st0" d="M244.1-68.4v18.7L226-45l2.7,19.6l-15.2,8.8L220,1l-11,13.2l10.5,14.3l-8,15.8l14,9.5L223,72.5l17.5,8.4
	l1.5,15.8l19.2,3.5l133.5-8.1l41.5-11.2L432,61.2l15-7.4l-7-18.9l11.5-10.8L440,8l7.5-16L434-22.7l2.2-14.3L419.9-46l-2.4-14.8
	L396.3-65l-132.8-4.7L244.1-68.4z"/>
<path class="st1" d="M333-102.3l14.6,12.5l17.8-7.2l10.8,15.6l19.2-2.5l6.3,17.7l19.3,2.4l1.3,18.6l18.1,7.1l-3.8,18.3l15.6,11.3
	l-8.6,16.6l12.1,14.8L443,37l7.7,17.2l-16.1,10.2l2.8,18.5L419,88.7l-2.3,18.5l-19.4,1l-7.2,17.2l-19.1-3.9l-11.6,14.8l-17.4-8.5
	l-15.2,11.4l-14.6-12.5l-17.8,7.2l-10.8-15.6l-19.2,2.5L258,103l-19.3-2.4L237.4,82l-18.1-7.1l3.8-18.3l-15.6-11.3l8.6-16.6
	l-12.1-14.8L216.9,0l-7.7-17.2l16.1-10.2l-2.8-18.5l18.4-5.8l2.3-18.5l19.4-1l7.2-17.2l19.1,3.9l11.6-14.8l17.4,8.5L333-102.3z
	 M332.9-96l-14.4,10.8l-16.5-8l-11,14l-18.1-3.7l-6.8,16.3l-18.4,0.9L245.6-48l-17.4,5.5l2.7,17.5l-15.3,9.6l7.3,16.3l-12.1,13.2
	l11.4,14L214,43.9l14.8,10.7l-3.6,17.3l17.1,6.7l1.2,17.7l18.3,2.3l5.9,16.8l18.2-2.3l10.3,14.8l16.9-6.8l13.9,11.8l14.4-10.8
	l16.5,8l11-14l18.1,3.7l6.8-16.3l18.4-0.9l2.1-17.5l17.4-5.5L429.1,62l15.3-9.6L437.1,36l12.1-13.2l-11.4-14l8.1-15.8l-14.8-10.7
	l3.6-17.3l-17.1-6.8l-1.2-17.7l-18.3-2.3l-5.9-16.8l-18.2,2.3L363.6-91l-16.9,6.8L332.9-96z"/>
<path class="st2" d="M301.8,115.4L293,88.5l-29.6,7.6l4-27.7l-24.4-4l6.2-13.7L226.4,26l25.5-15.5l-20-16.7l24.9-5.6L243-37.1
	l46.7,9.3l6.3-37.3l24.6,17.4l18.7-22L354-44.9l27.1-13.1l2.4,27.9l30.8-1.9L404.1-5.7L433.3,4l-17.6,20.1l18.9,19.3l-24.2,14.9
	l4.6,15l-30.4,12.1l1.9,21L358.5,94l-13.2,25.1l-20.1-21.6L301.8,115.4z"/>
<path class="st3" d="M199.7,61.2l-9.3,6l0.7,5.4l15,2.3l22,3.6l16.1,2.4l-2.1-8.3L199.7,61.2z"/>
<path class="st4" d="M278.3,17.3L258.3-1L248-21l-3.9-13.3l-5.5-4.3l-18.7,3l-5,10.3l-18.3,2.6l-13.7,11l-9.3,11.1l2,22.4L164,34.9
	l-5,16.8l4.7,5l30,3.4l29.7,4.3l18.3,8.1L278.3,17.3z"/>
<path class="st5" d="M240.7,70.7l-32.3-9.5L171,55.1l-10.7,1.6L159,38.4l22.3,3.3l21,6L226,58.4l14.7,6V70.7z"/>
<path class="st5" d="M174.7,8l15.7-3l22.3,3L225,19.3l8.3,10.7L214,20l-25.3-4l-11,4L174.7,8z"/>
<path class="st5" d="M229-35.7l-2,7.9l3.7,12.8l-16.3-7.7l4.7-12.9H229z"/>
<path id="path128" class="st6" d="M299.1,24.1c6.7,0.5,22.5,1.4,33.7,0.5c6.8,8.7,34.1,55,32.4,60.8c-12.1-0.5-26.3-9.1-35.4-17.5"
	/>
<path id="path28" class="st7" d="M375.8,20l-16.7,2.5L336.6,25l-14.6,0.4L307.9,25l-10.8-3.3l-9.6-10.4L280-10l-1.7-4.6l-10-3.3
	l-5.8-9.6l-4.2-13.7l4.6-12.1l10.8-3.8l8.8,4.2l4.2,9.2l5-0.8l1.7-2.1l-1.7-9.6l-0.4-12.1l2.5-16.7l-0.1-9.5l7.6-12.1l13.3-9.6
	l23.3-10l25.8,3.8l22.5,16.3l10.4,16.7l6.7,12.1l1.7,30l-5,25.8l-9.2,22.9l-8.8,12.1"/>
<path id="path30" class="st8" d="M361.6,92.1l-59.6,2.5v10l13.9,34.6l-11.4,3.3l-41.7-14.2l-2.9-5l-9.3-46.7L246.2,48l-2.1-6.7
	l33.3-22.9l10.4-4.2l9.2,11.3l7.9,7.1l18.3,25.8l3.8,4.6l4.1,8.2l35,18.4L361.6,92.1"/>
<path id="path40" class="st9" d="M357.5-25.4c0,0,1-12.6,4.4-11.7c3.4,1,3.4,4.4,3.4,4.4S357-27.3,357.5-25.4"/>
<path id="path54" class="st10" d="M297.1,25.5L261.2,40c0,0-6.9,0.7-11.2,4.3c-3.3,5.7,0.3,25.4,3,34.1c2.7,8.7,11.3,45,23,54.2
	l-16-7.1l-6.7-26.6l-14.6-34.4l2.7-26L285,13.8L297.1,25.5"/>
<path id="path56" class="st10" d="M301.1,61.2l5.6,6.8v25H300c0,0-0.8-17.5-0.8-19.6s0.8-9.6,0.8-9.6"/>
<path id="path58" class="st10" d="M301.2,96.7l-18.8,0.8l5.4,3.8l13.3,2.1"/>
<path id="path62" class="st8" d="M369.6,92.5l23.3-1.3c0,0,9.6-24.2,9.6-25.4s8.3-35,8.3-35l-18.8-19.6L388.3,8l-10,10v38.8
	L369.6,92.5"/>
<path id="path66" class="st10" d="M380.4,16.7l29.2,21.7l0.8-10L388.3,8L380.4,16.7"/>
<path id="path116" class="st6" d="M388.2,53.8c-1.4,10.8-10.6,26.2-18.6,33.8c4.6-8.4,2.8-66,4.6-67.6s9.7-6.2,9.7-6.2
	S391,39.2,388.2,53.8z"/>
<path id="path76" class="st4" d="M368.6,89.2l-9.2-23.3l-9.6-13.8c0,0,2.1-5.8,5-5.8c2.9,0,9.6,0,9.6,0l9.2,3.3L372.8,65L368.6,89.2
	"/>
<path id="path78" class="st5" d="M370.4,81.3c0,0-11.7-22.5-11.7-25.8c0,0,2.1-5,5-3.8c2.9,1.3,9.2,4.6,9.2,4.6v-7.9l-14.2-2.9
	l-9.6,1.3L365.4,85l3.3,0.4"/>
<path id="path84" class="st0" d="M384.6,49c-7.1-0.2-13.7-1.1-19.3-2.7c0.4-2.3,0.6-5.7,1.2-7.4c4.5-2.4,1.2-2.3-1.2-1.7
	c-0.1-1.6-1.6-3.9-2.1-5.2c4-1.4,15.5-10.9,20.8-7.8c2.5,1.5,4.7,10.1,4.9,14.2c0.2,3.4-1.5,8.6-2.9,10.4"/>
<path id="path88" class="st0" d="M353.2,36.6c0.5,7.8,1.2,10.1,1.1,11.4c-4,2.8-10,6.8-14.7,9.4c-2.3,1.2-9.2,5.4-11.6,4.8
	c-1.4-0.3-3.5-2-4-3.6c-1.2-3.4-4.2-10.3-4.4-15.4c-0.3-6.5-0.4-20.3,6.6-19c5.6,1.1,11.1,3.4,15.4,5.8c2.7,1.5,7.4,4.6,11.4,4.9"/>
<path id="path92" class="st11" d="M355.4,43.9c-0.6-3.5-1.3-4.5-1.1-7.6C363.8,30,365.5,47,355.4,43.9"/>
<path id="path94" class="st0" d="M355.4,43.9c-0.6-3.5-1.3-4.5-1.1-7.6C363.8,30,365.5,47,355.4,43.9z"/>
<path id="path96" class="st12" d="M369,46.7c0,0-2.9-4.2-0.8-5.4c2.1-1.3,4.2,0,5.4-2.1s0-3.3,0.4-5.8c0.4-2.5,2.5-2.9,4.6-3.3
	c2.1-0.4,7.9-1.3,8.8,0.8l-2.5-7.5l-5-1.7L364,30.9l-0.8,4.6v9.2"/>
<path id="path98" class="st12" d="M325.3,60.5c-0.5-6.5-1-13-1.6-19.5c-0.9-9.7,2.3-8,10.7-8c1.3,0,7.9,1.5,8.4,2.5
	c2.3,4.6-3.8,3.6,2.6,7.1c5.4,3,15-1.8,12.8-8.4c-1.2-1.5-6.4-0.5-8.2-1.4c-3.3-1.7-6.5-3.4-9.8-5.1c-4.1-2.1-13.7-5.3-18.1-2.3
	c-11.2,7.6,0.7,26.6,4.7,34.6"/>
<path id="path126" class="st5" d="M368,26.5c-3,1.9-4.6,3.5-7.4,5.5c-6.3,0.3-10.4-1.1-15-4.7c0.1-0.3,0.5-1.5,0.6-1.8
	c6.8,3,17.8-0.8,24.6-1.4"/>
<path id="path132" class="st9" d="M330.1-15.6c0.5-0.7,3.6-1.8,7.8,0.2c0,0-5,0.8-4.6,9.2l-2.1-0.4C331.2-6.6,329.1-14.2,330.1-15.6
	"/>
<path class="st8" d="M402.7-69.7l-35.7,10.1h-37.1l-21,9.9l3.4,14.7c0,0,2.5,14.3,5.1,21c2.6,6.8,10.3,18.3,13.9,21.5
	s10.6,7.8,14.3,8.4s13.8-0.3,19.4-1.8c7.8-2,9-2.8,12.5-4.8s10.8-7.8,10.8-7.8l-15.2,19l-16.7,4.7l-35.7,1l-18.5-3.4l-10-7.1
	c0,0-6.1-6.8-9.6-15.3c-3.8-9.3-3.1-19.7-3.8-18.2c-1.3,2.8-14.1-4.3-14.1-4.3l-6.3-22.9l4.7-11l-0.3-20l6.9-18.5l9.4-12.8l25.7-15
	l18-6.7l26.3,0.4l19.3,4.9l16.2,11l13.1,17.5L402.7-69.7z"/>
<path class="st10" d="M271.6-58.2c0,0-1.4-10.8,0.2-20.4c3-9.7,5.4-12.4,9-16.8c3.6-4.5,8.3-9,14.2-13.6c5.9-4.6,8.6-6.2,19.6-12.1
	c10.1-4,22.5-6.3,22.5-6.3l-18.7,1.2l-27.9,12.4l-17.9,16.7l-7.7,11.8L261.2-65l5,8.8L271.6-58.2z"/>
<path id="path46" class="st10" d="M282.4-47c0,0-14.5-6.4-16.2,2.8c-1.7,9.2-4.2,15.5,3.7,25.1l-5.4-1.7l-5-12.9l-1.7-12.5l9.6-10
	l10.8,0.8l4.1,3.6"/>
<path id="path38" class="st10" d="M280.8-17.5l5.5-5.3c0,0,2.5,0.3,2.9,3.2c0.4,2.9,1.7,29.2,19.6,43.3c1.6,1.3-13.3-2.1-13.3-2.1
	L282.1,0.9"/>
<path class="st4" d="M395.6,53.3l-4,3.9l-1.2,4.1l0.2,2.8l7.8-3.8l2.9-3l-0.4-3.4l-2.1-1L395.6,53.3z"/>
<path class="st8" d="M372.3,74.8l11.7,36.7c0,0-7.2,6.1-9.8,5.3c-2.5-0.8-16.9-38.4-16.9-38.4L372.3,74.8z"/>
<path class="st10" d="M371,72.6l4.2,9.8c0,0-7.6,8.4-13.4,7.1l-4.5-11L371,72.6z"/>
<path class="st4" d="M357.3,78.4c0,0,8.4,24.7,15.6,37c6.5,1.9,15.1,2.5,20.8-0.8c8.5-5.6,10.1-7.7,11.6-9.8
	c5.4-2.1,18.5-5.5,22.2-5.8c3.1,0.4,6.7,1.6,7.1,11.9c-3.6,15.5-40.8,19.9-82.6,33.9c-20,3.7-37.5-1-41.9-8.2
	c-4.3-7.2-9.6-24.4-9.6-24.4l-3.4-17l4.2-2.3l32.3-9.4L357.3,78.4z"/>
<path class="st5" d="M299.1,100.2l4.4,1.5c0,0,13.9,25.6,26.3,33.6c10.4,2.9,45.6-5.8,59-8.7c21.5-2.7,41.4-12,45.7-18
	c7.1,9.4-17.8,20-50,23.9c-20.2,10-49,16.4-54.7,15.5C310.5,149.3,299.1,100.2,299.1,100.2z"/>
<path class="st4" d="M417,55.1l13.3,22.3l-1.5,14.8l-29.8,8.1c0,0-17.5,9.6-18.2,11.5C380.5,93.5,369,75.1,369,75.1l8.1-3.4l6.9-0.2
	l11.2-8.8l12.2-6.9L417,55.1z"/>
<path class="st5" d="M422.2,67.2l7.3,12.1l2,7.2L427,97.7l-7,3.2l-12.3,2.2l-7.2,1.7l-10.1,5l-8.4,2l-1.7-7c0,0,14.9-7.3,16.7-7
	c0,0-9.9-25.6-13.3-27c0.2-1.3,0.7-1.5,1.7-2.1c1.2-0.3,2.1-0.4,3.3-0.3c0,0,11.2,25.9,11.7,28.4c0,0,19.7-6.6,21.7-7.1
	C422.3,89.6,425.5,76.7,422.2,67.2z"/>
<path class="st3" d="M405.3,104.8c-1,2-2.4,4.8-4.1,6.1c-11.1,6.4-16.7,8.2-21.4,7.1c-10.6-2.4,15.9-10.9,17.3-11.5L405.3,104.8z"/>
<path class="st1" d="M343.2-130.8l4.6,0.3c11,0.9,21.4,4,30.5,10.2c6.7,5.1,17.4,15.7,21.2,23.5c10.1,20.4,9.4,54.6,2.3,79.4
	c-1,3.3-2.3,8.2-4.3,12.2c-1.3,2.8-5.5,8.4-5,10.9c0.5,2.6,9.5,9.4,11.4,11.2c3.5,3.3,10.1,7.8,10.6,12c0.6,4.5-2,10.6-3.3,15
	c-0.8,2.8-1.6,5.5-2.5,8.3c1.8-0.5,3.7-0.4,5.6-0.5l0,0c3.7,0.3,6.2,2.3,8.6,4.9c3.3,4.4,7.8,12.1,10,16.9c3.2,6.8,4,19.4-2.8,23.3
	c11.1,12,8.2,22.9-5.6,32c-17.8,2.7-19.3,3.9-37.3,7.3c-15.7,4.8-20.7,6.5-33,12.2c-5.3,3.5-11.2,6-17.7,5.2
	c-5.2-0.6-9.6-3.1-14-5.8l-2.1,0.5c-13.8,1.5-41.3-9.4-51.8-14.3c-3.6-1.7-7.7-3.9-9.1-6.8c-1.3-2.8-5.8-15.7-7.4-20.5
	c-4-11.8-2.2-4.5-5.6-17.8c-1.3-3.8-0.4-1.6-3-6.7c-12.6-2.5-25.2-4.8-38-5.7c-11.7,0-14.7,0.3-18.7-3.8c-3-6.9,7.9-11.1,7.9-11.1
	c-4.2-0.8-8.4-1.4-12.6-1.9c-17.6-2.3-23.5-0.7-23.5-0.7s-2.6,0.5-3.2-13.9c3.5-12.1,17.9-23.7,17.9-23.7
	C160.3-1.1,180-12.6,180-12.6c7.9-7.2,12.9-15.7,32.6-14.7c0.7-5.9,1.9-9.7,10.3-12.2c3-1,6.1-1,9.2-1.1h0l1.6,0.1
	c3.7,0.3,7.1,1.8,10.4,3.3c4.3,4.8,7.4,19.3,13.5,29.5c6.8,7.4,13,15.5,20.7,21.9c1.6-1.1,3.7-1.9,4.8-3.5c1.6-3.3-2.7-7.8-3.9-10.4
	c-1.8-4-2.8-7.5-3.1-11.4c-6.7-1.1-11.7-5-14.7-9.5c-5-7.4-8.5-21.1-4.2-31.5c0.3-0.8,2-2.4,2.3-3.7c0.6,0-0.9-5.8-1-8.4
	c-0.5-13.5,4.4-26.2,10.4-34c7.4-10.4,14.4-14.4,23.6-19.6c4.5-2.6,13.3-6.5,18.6-8.4c6.4-2.3,16.5-4.2,23.3-4.7
	C340.3-130.8,337.4-130.8,343.2-130.8L343.2-130.8z M356.2,80L356.2,80c-6.5,1-10.3,2.5-16.5,3.6l0,0l0,0
	c-14.2,2.9-27.9,7.7-41.2,13.1c8.4,25.3,19.3,41.8,38.6,48.1c19.1,0,19.1-5.6,40.3-12.3c23.2-6.5,16.1-5.9,37.4-8.5
	c20.7-4.9,18.7-25.1,11.5-23.8c-3.3,1.9-11.5,3.8-18.1,4.6l-6.9,1.2c0,0-17.8,7.1-22.4,10.7c5,3,10.1,0,13.8-1.7l5.4-1.8
	c-3.3,3.1-11,6.6-15.8,6.7c-6.7-0.4-13.2-5.2-16-9.2C363.4,106.8,356.2,80,356.2,80L356.2,80z M286.2,18.2
	c-13.9,5.5-32.8,16.6-39.8,20.1c-7.7,4.6-4.8,17-2.2,30.6c2.6,13.8,14.2,41.5,19.9,53.8c14.8,6.6,30,13.1,46.2,15.6
	c-7.6-11.2-9.9-24.7-13.6-37.5c-0.1-1.3,0-0.4-0.4-2.6c-0.1-1.7-0.1-0.9,0-2.4c-2.7-2.1-5.5-3.9-8.7-5.1c0-4.9,6.5,2.1,7-1.1
	c0.4-2.5-4.7-3.7-3.5-7.6c3.2,1.1,2.7,2.5,6.1,3.5c2.1-6.8,1.1-13.6,1.5-19.3c0.2-1.6,0.2-3.9,1.8-4.9c0.5-0.1,0.2-0.1,0.7-0.2
	l0.4,0.1c2.1,0.7-0.1,12.8,0.1,18.1c0.1,3.2,0.2,6.6,1.9,9.4c10.8-3.8,21.8-7.1,32.9-10c-3.4-2.3-6.5-5.1-9.5-7.8
	c-4.4-4.6-5.1-7.1-11.4-15.4c-4.8-6.5-14.6-21.1-19.4-26.9C294.9,27.8,287.2,17.8,286.2,18.2L286.2,18.2z M369.5,77
	c-3,0.7-4.5,0.1-7.3,1.8c2.2,11.2,6,26.9,11.6,34.9c2.6,3.6,2.7,1.3,6.5-0.8c-0.1-8-4.5-24.8-9.1-33.8L369.5,77z M385,71.9l-3.9,1.3
	c-3.7,1-6,2-8.6,2.7c5.2,10.4,10.9,33.4,10.9,34.7s11.6-4.7,14-5.7C395.9,96.4,389.7,78.2,385,71.9L385,71.9z M409.8,55.5
	c-1.6,0.8-4.6,1.6-5.6,2.5c-5.9,4.7-13.8,8.2-17.5,12.8c4.1,6.4,10.9,23.6,13.7,32.5c14.6-1.1,18.5-4,22.9-6.1
	c6-2.9,8.4-11.5,4.9-19.2c-2.3-5.1-6.6-14.8-9.6-17.8c-1.8-1.6-3.9-4.3-6.4-4.5L409.8,55.5z M414.2,88.6c2.4-0.1,4.7,0,7,0.4
	c-5.8,1.4-13,2.8-18.5,3.5C405.3,89.1,410.3,89,414.2,88.6L414.2,88.6z M413.6,80.8c2.5,0.1,1.4,0,3.1,0.2c-5,1.6-10.9,3.8-16.2,4.4
	C403,81.1,409.3,81.1,413.6,80.8L413.6,80.8z M412.5,68.2L412.5,68.2L412.5,68.2c-5.8,2.6-8.9,9.2-15.4,10.6
	C399.8,72.6,406.3,69.9,412.5,68.2L412.5,68.2z M201,62.6L201,62.6c0,0-11,3-9,8.4c4.7,3.8,10-0.3,18,1.6
	c10.6,1.4,21.2,3.4,31.6,5.7c-1.5-2.8-0.7-1.2-2.4-4.9C226.9,68.4,213.9,65.6,201,62.6L201,62.6z M348.9,54.4
	c-14.4,9.8-13.5,9.3-14.9,9.9c-1.5,0.4-3.1,0.7-4.6,0.8l3.4,3.9c3.9,2.9,8.1,5.3,12.4,7.5l1.4-0.4c4.5-0.5,9.1-0.5,13.4-1.8
	C357.2,67.2,353.3,60.6,348.9,54.4L348.9,54.4z M363,47.1c-2.6-0.3-4.8,3-8.1,1.6c-0.8,0.9-1.5,1.8-2.3,2.6
	c5.2,6.5,8.4,14.2,11.7,21.8l0.6-0.2c3.6-0.8,1.4-0.3,6.4-1.3c0.8-6.7,0.9-13.5,1.2-20.3C368.3,51.5,366,47.4,363,47.1L363,47.1z
	 M366.6,64.4c1.3,0,2.3,1,2.3,2.3c0,1.3-1,2.3-2.3,2.3c-1.3,0-2.3-1-2.3-2.3C364.4,65.4,365.4,64.4,366.6,64.4L366.6,64.4z
	 M364.4,53.8c1.3,0,2.3,1,2.3,2.3c0,1.3-1,2.3-2.3,2.3c-1.3,0-2.3-1-2.3-2.3C362.1,54.8,363.1,53.8,364.4,53.8L364.4,53.8z
	 M386.8,50.7l-3.1,0.9c-7.1-0.2-5.8-0.7-8,0.1c-0.1,6.5-0.9,12.9-1.6,19.3c2.3-0.5,4.6-1.1,6.7-2.3c2.5-4.6,4.2-9.6,5.6-14.7
	C386.7,52.1,386.5,53.2,386.8,50.7L386.8,50.7z M231.6-36.6c-4.3,0.2-8.1,1.9-11.6,4.2c-4.5,6.2-1.6,9.9-1.6,9.9s15.1,6.2,23.3,16.8
	c6.3,9.7,4.1,10.5,4.1,10.5s-5.6-6.5-13.8-14c-11.5-8.7-25.1-12.7-25.1-12.7c0,0-14.9-0.9-22.8,11c-15.4,7.4-6.1,29-6.1,29
	c3.6-2.2,5.1-4.6,16-6.3c12.1,0.7,19.6,6.7,25.6,10.4c-9.2-1.5-24.5-8.6-37.5-2.6c-7.2,3-7.2,4.3-15.9,14.5
	c-8.8,15.3-4.3,20.3-4.3,20.3s22.4-0.5,47.7,6.4c9.3,2.5,18.6,5,27.8,7.9l-0.4-1.5c-1.4-5.4-4-13.5-0.7-26.7
	c2.7-12.3,16.8-10.8,21.6-14.2c7.3-5.3,7.1-4.2,15.1-9c0.7-0.4,1.4-0.8,2.1-1.2c-7-6.3-13.5-13-19.9-19.9
	c-5.9-9.9-9.1-24.2-12.8-30.4C238.6-36.2,235.8-36.5,231.6-36.6L231.6-36.6z M387.8,12.2c-1.2,1.5-0.5,0.8-2.2,2.3
	c1.9,2.4,2.6,5.6,3.2,8.6c3,5.6,3,17,1.3,23c-0.8,5.6-1.7,11.2-3.4,16.5l-1.1,3l1.4-0.9l0-0.1l0.6-1.3c0,0,1.8-3.2,2.7-5.5
	c0.9-2.3,3.1-4.5,6.3-6c3.3-0.4,4.4,0.6,4.4,0.6c1.6,1.4,1.6,1.4,2.2,2.1l0.4-0.3c1.3-4,2.2-8.1,3.2-12.2c0.5-2.3,1.7-7.3,1.4-9.4
	c-0.5-3.7-5.5-6.4-8-8.7C395.6,19.8,392.7,16.1,387.8,12.2L387.8,12.2z M398,53.8c-3.3,1.3-4,2.1-5.4,4.6c-0.7,2.5-1.5,3.9-1.5,3.9
	c5.5-3.9,5.5-4.4,9.5-6.8C400.5,54.2,399.2,54.2,398,53.8L398,53.8z M325.9,26.5c-0.6,0.2-1.4,0.2-1.9,0.5c-4,2.3-3,11.8-2.8,15.5
	c0.2,5.1,2.9,10.5,4,13.9c0.5,1.6,0.7,3.3,2,3.6c2.4,0.6,10.3-2.6,12.6-3.8c4.8-2.6,8.5-6.7,12.5-9.5c0.1-1.3,0.1-2.7,0.2-4
	c-2.4-1.2-5.2-2.1-8.8-2.2c2.4-1.2,6-1.2,8.2-2.7c0-0.5,0-1.1,0.1-1.6c-4-0.3-5.6-2.1-8.2-3.6c-4.3-2.4-10.9-5-16.5-6L325.9,26.5z
	 M302.1,25.1c9.3,15.4,11.7,17.5,13.3,20.4c1.5,2.3,3.1,4.4,4.6,6.6c-1.8-6.1-0.9-2.8-2.5-9.9c-0.5-3.4-0.6-6-0.5-8.2
	c0.6-7.3,0.7-5.3,0.6-6.2c-2.9-0.4-2.6-0.3-3.4-0.4l-0.1,0C314.1,27.4,305.7,27.2,302.1,25.1L302.1,25.1z M380.2,24.7L380.2,24.7
	c-5.9,1-10,5.9-15.3,8.2c0.4,1.2,1.1,2.2,1.2,3.8c2.4-0.6,5.2-0.2,7.3,0.8c-2.4,0.3-5,0.2-6.5,1.4c-0.6,1.7,0.1,3.9-0.2,6.2
	c5.6,1.6,12,2.4,19,2.6c1.4-1.8,1.8-5.2,1.7-8.6c-0.2-4.1-1.3-12.4-3.8-13.9C381.8,24.5,382.9,24.8,380.2,24.7L380.2,24.7z
	 M358.6,34.9L358.6,34.9c-1.4,0-2.6,0.7-3.8,1.4c-0.3,3.1,0.4,4.1,1.1,7.6C362.6,46.8,365.8,35.9,358.6,34.9L358.6,34.9z
	 M368.7,24.9c-6.8,0.6-15.4,4.9-22.2,1.8c0,0.4-0.5,0.2-0.6,0.5c4.6,3.6,8.1,4.4,14.4,4.1C363.2,29.3,365.7,26.9,368.7,24.9
	L368.7,24.9z M339.9-126.6c-8.9,0.7-5.1,0.3-11.5,1.2c-12.8,2.2-17.4,5-23.6,7.6c-6.2,2.6-17.6,8-25.2,15.8
	c-5.6,5-10.2,11.6-13.8,22.2c-2.6,7.8-0.6,14.2,0.1,22.3c4.5-2.7,8.1-2.4,12.9-0.1c1.1,0.7,2.2,1.7,2.2,2.6c-3.6,1.5-3.5,1.4-5,1.1
	c-8.5-0.9-14.7,6.1-15.1,13.4c-0.5,8.6,6.6,23,16.7,22c3.9-0.4,4.8-4.3,9.1-4.2c2.3,4.6-3.5,6-4.1,9.3c-0.2,0.8,0.5,4.1,0.9,5.7
	c1.8,7.5,5.9,17.3,9.9,23c5.1,7.3,15.1,8.4,25.8,9.1c1.9-4.1,9-3.8,13.6-2.7c-5.5-2.2-11.8-5.8-16.1-10.5c-4.9-5.4-8.6-8.2-8.9-15.3
	c9.2,12.8,16.8,19.4,33.6,25c12.7,4.3,27.5-2,37.3-8.8c4-2.8,6.5-7.4,9.3-11.5c8.6-12.6,12.9-27.5,14.3-42.6c-4.3-2-9-1.6-13.6-1.7
	c-1,0-2.1,0-3.2,0.1l1.6,1.8c1.5,1.6,3.9,3.1,4.2,4.2c0.8,3.1-2,6.8-1.7,8.8c-8.1,5.2-17.2,10.9-30.6,9.6c-2.9-2.5-3.9-8-1.2-11.6
	c1.4,2.5,0.5,7,4.6,7.7c7.6,1.3,16.4-4.6,21.8-6.7c3.4-5.7-0.3-7.8-3.3-11.5c-3.1-3.7-1.5-1.8-4.8-5.9l-1.9-1.6c0,0-4.9,3-8,4.9
	c-2.8,1.8-5.4,4.1-5.4,4.1s-8.9,1.1-14.3,2c-4.5,0.7-9.6,1.8-16.7,3.6c-6.6,1.7-17.3,6.2-17.3,6.2l-4-14.8c0,0-1-8.4-0.7-14.6
	c0.2-6.3,2-19.8,2-19.8s3.8,0.6,28.1,5.5c7,1.3,22.7,2.7,31.7,3.3c1.7-0.1,2.9,0,5.6-0.4c10-1.9,17.2-6.6,24.8-13.2
	c-0.7-2.7-1.1-5.5-2.3-8c-0.5-1.6-2.4-5.5-4-7.9c-1.6-2.4-6.5-8.7-7-9.2c-5.6-5.6-9.6-7.7-13-10.2c-7.2-5.2-15.4-7.4-22.2-8.8
	c-4.2-0.4-1.7-0.2-7.7-0.5L339.9-126.6z M340.1-11.8c4.9,12.3,21.8,10.9,36,10.6c-0.6,1.6-2,3.5-3.7,4.2c-4.6,1.9-17.1,3.3-23.5-0.1
	c-4-2.1-6.6-7-8.8-9.8C339.1-8.3,333.8-11.8,340.1-11.8z M341.4-18.7c7.1,3.7,20.1,4.1,29.8,3.9c0.5,2.1,0.5,4.7,0.5,7.3
	C359.3-6.9,344.7-10,341.4-18.7z M394.7-23.4c-3.8,7.2-9.2,15.2-20.3,15.4c-0.2-2.3-0.4-5.9,0-7.3C383-16.1,388.2-20.4,394.7-23.4z
	 M383.2,16.5c-1.2,0.8-2.3,1.8-3.2,3c1.4-0.4,1.5-0.6,3.2-0.6c0.3,0,0.6,0.1,0.9,0.2C383.3,16.8,383.7,17.6,383.2,16.5L383.2,16.5z"
	/>
<g id="レイヤー_6">
	<path class="st4" d="M356.2-52.4v-3l-7-2.2l-9.7-1.4l-2.4,1.2l7,7.1l8,1.1L356.2-52.4z"/>
	<path class="st4" d="M396.2-59l-0.4-3.4l-6.9,2.2l-4.3,2.8l1,3l4.8,1.2L396.2-59z"/>
	<g>
		<path class="st5" d="M376.4-98.4l4.1,0.8l1.6,3.6l-5.6,0.9l3.8,6.8l0.3,3.4l-2.6,3.4l-7.5,2.2l-7,0.2l-5.5-2.2l-3-4.7L357-86
			l5.4-0.9l1.2,3l2.9,1.1h5l1.6-3.5l-4.2-6.2l-8.9,1.6l-3.9,1.1l-3.3-2l-0.9-2.2l5.9-1.9L376.4-98.4z"/>
		<path class="st4" d="M375.3-97.6l4.4,0.5l1.6,2.3l-6.3,1.4l3.7,6.5l0.8,3.4l-1.7,3.4l-8.7,2.2l-7-0.1l-4.3-2.3l-1.6-4.5l2.1-1.4
			h3.2l1.2,3.4l3.8,1.1l6.6-1.1l1.1-3l-4.8-7.2l-8.5,1.1l-4.6,1.5l-1.8-1.3l-0.8-2l5.2-1.7L375.3-97.6z"/>
	</g>
</g>
</svg>
