<?xml version="1.0" encoding="utf-8"?>
<!-- Generator: Adobe Illustrator 19.1.0, SVG Export Plug-In . SVG Version: 6.00 Build 0)  -->
<svg version="1.1" id="Layer_1" xmlns="http://www.w3.org/2000/svg" xmlns:xlink="http://www.w3.org/1999/xlink" x="0px" y="0px"
	 viewBox="0 0 600 20" style="enable-background:new 0 0 600 20;" xml:space="preserve">
<style type="text/css">
	.st0{fill:none;stroke:#000000;stroke-miterlimit:10;}
</style>
<g>
	<g>
		<g>
			<path class="st0" d="M0,0.5c8.2,0,8.2,19,16.4,19c8.2,0,8.2-19,16.4-19s8.2,19,16.4,19"/>
		</g>
		<g>
			<path class="st0" d="M33.1,0.5c8.2,0,8.2,19,16.4,19c8.2,0,8.2-19,16.4-19s8.2,19,16.4,19"/>
		</g>
	</g>
	<g>
		<g>
			<path class="st0" d="M65.5,0.5c8.2,0,8.2,19,16.4,19c8.2,0,8.2-19,16.4-19s8.2,19,16.4,19"/>
		</g>
		<g>
			<path class="st0" d="M98.6,0.5c8.2,0,8.2,19,16.4,19c8.2,0,8.2-19,16.4-19s8.2,19,16.4,19"/>
		</g>
	</g>
	<g>
		<g>
			<path class="st0" d="M131.3,0.5c8.2,0,8.2,19,16.4,19c8.2,0,8.2-19,16.4-19s8.2,19,16.4,19"/>
		</g>
		<g>
			<path class="st0" d="M164.4,0.5c8.2,0,8.2,19,16.4,19c8.2,0,8.2-19,16.4-19s8.2,19,16.4,19"/>
		</g>
	</g>
</g>
<g>
	<g>
		<g>
			<path class="st0" d="M197.4,0.5c8.2,0,8.2,19,16.4,19c8.2,0,8.2-19,16.4-19s8.2,19,16.4,19"/>
		</g>
		<g>
			<path class="st0" d="M230.5,0.5c8.2,0,8.2,19,16.4,19c8.2,0,8.2-19,16.4-19c8.2,0,8.2,19,16.4,19"/>
		</g>
	</g>
	<g>
		<g>
			<path class="st0" d="M262.9,0.5c8.2,0,8.2,19,16.4,19c8.2,0,8.2-19,16.4-19s8.2,19,16.4,19"/>
		</g>
		<g>
			<path class="st0" d="M296,0.5c8.2,0,8.2,19,16.4,19c8.2,0,8.2-19,16.4-19s8.2,19,16.4,19"/>
		</g>
	</g>
	<g>
		<g>
			<path class="st0" d="M328.7,0.5c8.2,0,8.2,19,16.4,19c8.2,0,8.2-19,16.4-19s8.2,19,16.4,19"/>
		</g>
		<g>
			<path class="st0" d="M361.8,0.5c8.2,0,8.2,19,16.4,19c8.2,0,8.2-19,16.4-19s8.2,19,16.4,19"/>
		</g>
	</g>
</g>
<g>
	<g>
		<path class="st0" d="M394.6,0.5c8.2,0,8.2,19,16.4,19c8.2,0,8.2-19,16.4-19s8.2,19,16.4,19"/>
	</g>
	<g>
		<path class="st0" d="M427.6,0.5c8.2,0,8.2,19,16.4,19c8.2,0,8.2-19,16.4-19s8.2,19,16.4,19"/>
	</g>
</g>
<g>
	<g>
		<path class="st0" d="M460.1,0.5c8.2,0,8.2,19,16.4,19c8.2,0,8.2-19,16.4-19s8.2,19,16.4,19"/>
	</g>
	<g>
		<path class="st0" d="M493.1,0.5c8.2,0,8.2,19,16.4,19c8.2,0,8.2-19,16.4-19c8.2,0,8.2,19,16.4,19"/>
	</g>
</g>
<g>
	<g>
		<path class="st0" d="M525.9,0.5c8.2,0,8.2,19,16.4,19c8.2,0,8.2-19,16.4-19c8.2,0,8.2,19,16.4,19"/>
	</g>
	<g>
		<path class="st0" d="M558.9,0.5c8.2,0,8.2,19,16.4,19c8.2,0,8.2-19,16.4-19c8.2,0,8.2,19,16.4,19"/>
	</g>
</g>
</svg>
